<svg xmlns="http://www.w3.org/2000/svg" xmlns:xlink="http://www.w3.org/1999/xlink" viewBox="0 0 409.33 513.09"><defs><style>.cls-1{fill:#efd6b8;}.cls-15,.cls-2{fill:#7a6c53;}.cls-2{opacity:0.58;}.cls-3{fill:url(#linear-gradient);}.cls-4{fill:#69489d;}.cls-5{fill:url(#linear-gradient-2);}.cls-6{fill:#bdaed0;}.cls-7{fill:#4f3231;}.cls-8{fill:url(#linear-gradient-3);}.cls-9{fill:#7a0026;}.cls-10,.cls-11,.cls-12,.cls-13,.cls-14{stroke:#1a1a1a;stroke-width:2px;}.cls-10,.cls-11,.cls-12,.cls-13,.cls-14,.cls-18,.cls-19{stroke-miterlimit:10;}.cls-10{fill:url(#linear-gradient-4);}.cls-11{fill:url(#linear-gradient-5);}.cls-12{fill:url(#linear-gradient-6);}.cls-13{fill:url(#linear-gradient-7);}.cls-14{fill:url(#linear-gradient-8);}.cls-16{fill:#fff;}.cls-17{fill:#00582a;}.cls-18,.cls-19{fill:none;stroke:#000;}.cls-18{stroke-width:3px;}.cls-19{stroke-width:0.75px;}</style><linearGradient id="linear-gradient" x1="428.86" y1="428.77" x2="440.85" y2="653.73" gradientUnits="userSpaceOnUse"><stop offset="0" stop-color="#69489d"/><stop offset="1" stop-color="#fff" stop-opacity="0"/></linearGradient><linearGradient id="linear-gradient-2" x1="617.85" y1="311.86" x2="615.34" y2="504.98" gradientUnits="userSpaceOnUse"><stop offset="0" stop-color="#69489d"/><stop offset="1" stop-opacity="0"/></linearGradient><linearGradient id="linear-gradient-3" x1="524.9" y1="389.99" x2="546.08" y2="495.13" gradientUnits="userSpaceOnUse"><stop offset="0" stop-color="#7d002e"/><stop offset="0.98" stop-color="#ab121c"/></linearGradient><linearGradient id="linear-gradient-4" x1="480.67" y1="406.03" x2="484.45" y2="384.56" gradientUnits="userSpaceOnUse"><stop offset="0" stop-color="#fff"/><stop offset="0.95" stop-color="#4f3231"/></linearGradient><linearGradient id="linear-gradient-5" x1="537.84" y1="407.84" x2="537.84" y2="383.75" gradientUnits="userSpaceOnUse"><stop offset="0" stop-color="#fff"/><stop offset="1" stop-color="#4f3231"/></linearGradient><linearGradient id="linear-gradient-6" x1="501.14" y1="436.22" x2="492.56" y2="445.57" gradientUnits="userSpaceOnUse"><stop offset="0" stop-color="#fff"/><stop offset="0.61" stop-color="#4f3231"/></linearGradient><linearGradient id="linear-gradient-7" x1="660.32" y1="401.29" x2="663.81" y2="376.81" gradientTransform="matrix(-1, 0, 0, 1, 1252.1, 0)" gradientUnits="userSpaceOnUse"><stop offset="0" stop-color="#fff"/><stop offset="0.98" stop-color="#4f3231"/></linearGradient><linearGradient id="linear-gradient-8" x1="668.12" y1="430.45" x2="658.83" y2="440.57" gradientTransform="matrix(-1, 0, 0, 1, 1251.87, 0)" xlink:href="#linear-gradient-6"/></defs><g id="Tan_Fur" data-name="Tan Fur"><path class="cls-1" d="M533.26,154.42S482,311.26,445,305.26s-101.43-43.09-111.88-10.51S351.71,393,368,417.07s10.45,77.48,4.64,81-17.9,18.55-17.9,18.55,130.16,106.1,326-10.81c0,0-37.18-29.27-5.11-88.7s37.24-106.78,31.56-116.59-45.79-20.24-70.63-10.38-52.21,32-79.56-75.34C557,214.76,544.43,168.35,533.26,154.42Z" transform="translate(-306.31 -47.59)"/></g><g id="Chin"><path class="cls-2" d="M491.06,459.45s10.44,17.81,23.7,18.2,55-.2,59.07-2.13,16.64-12.58,17.88-15.29c0,0-9.32,30.38-17.81,32.51s-52.59,4.07-62.32-2.32S491.42,468.94,491.06,459.45Z" transform="translate(-306.31 -47.59)"/></g><g id="Purple_Fur" data-name="Purple Fur"><path class="cls-3" d="M368,526.86s14.71-51.1,35.61-74.33c0,0-7.74-17.8-27.1-44.12s-56-83.59-12.78-105.9,53.58,15.31,88.2,9.9c11.69-1.83,37.81-25,42.26-33.25,5.07-9.34,19.46-49.67,11.61-59-6.49-7.69,12.39,10.4,11.62,14.14s-1.43-29.81,5.07-43.74a171.18,171.18,0,0,0,9.12-23.23l-3.33-57s-29-6.19-76.07,3.87l-78-65s-17.81-8.52-23.22,13.93-23.23,116.13-18.59,133.17,7.75,28.64,7.75,28.64-49.55,70.45-28.65,116.9,64.36,81.47,60.49,102.37-14.81,47.05-33.39,62.54Z" transform="translate(-306.31 -47.59)"/><path class="cls-4" d="M710.49,344.48c20.9-46.45-28.65-116.9-28.65-116.9s3.1-11.61,7.75-28.64S676.42,88.23,671,65.77s-23.23-13.93-23.23-13.93l-78,65c-47-10.06-76.07-3.87-76.07-3.87s79.83,6.19,105,53,73.55,64.26,79.74,89,35.88,74.33,32.07,89.42" transform="translate(-306.31 -47.59)"/><path class="cls-5" d="M681.84,228.3s49.55,70.45,28.65,116.91-27.9,45-37.57,71.21c0,0,31-67.29,21.36-89s-24.55-44.37-77.18-20.87c-51,22.77-71.11-82.48-71.26-83.26-.37-2-1.12-14.8,0-16.47,0,0-5.61,10.28-7.55,14.92,0,0-6.63-29.42-6.71-40.64s-9.08-65-9.08-65,23.29-1.16,44.51,11.61,71.15,60.77,78.51,75.48S681.84,228.3,681.84,228.3Z" transform="translate(-306.31 -47.59)"/><path class="cls-4" d="M710.49,344.48" transform="translate(-306.31 -47.59)"/><path class="cls-6" d="M357.88,191.19s-5.59-52.59,4.47-93.62c0,0,8.52-19.36,8.52-25.55,0,0,53.2,48,56.3,57.29C427.17,129.31,381.1,182.68,357.88,191.19Z" transform="translate(-306.31 -47.59)"/><path class="cls-6" d="M666.53,197.37s8.79-60.37-.95-105.7c0,0-5.51-20.42-4.58-26.54,0,0-61.56,52.31-66,61C595,126.16,644.85,185.45,666.53,197.37Z" transform="translate(-306.31 -47.59)"/></g><g id="Mouth_space_" data-name="Mouth space??"><path class="cls-7" d="M447.45,370.37A107.25,107.25,0,0,0,462.56,396c10.06,12.49,29.47,50.44,40.76,59.8,2.57,2.13,66.46,15,79.63-7.4a424.35,424.35,0,0,0,21.58-41.93s11.06-22.76,12.32-28.67a55,55,0,0,0,2.22-11.9s-12.1,19.19-35.66,23.19-36.58-3.3-37.87-8.61c0,0-2.4,12-15.15,13s-63.29-8.23-69.88-14a109.41,109.41,0,0,1-13.06-13.6Z" transform="translate(-306.31 -47.59)"/></g><g id="Tongue"><path class="cls-8" d="M527.69,392.79s38.47,3.37,44.15,14.4,15,29.38,9.78,68.09c0,0-.06,27.91-32.49,31s-38.87-19.39-39.68-38.75,2.57-18.09-12.16-39.48-20.41-31.74-18.52-33.29,11.42-3.79,20.81-1.29S527.69,392.79,527.69,392.79Z" transform="translate(-306.31 -47.59)"/><path class="cls-9" d="M527.19,398.94c4,2,24.47,42.42,19.87,80.77-.66,0,6.33-61.68-4.64-75.1C533.21,393.35,527.19,398.94,527.19,398.94Z" transform="translate(-306.31 -47.59)"/><path class="cls-9" d="M628.87,529.77" transform="translate(-306.31 -47.59)"/></g><g id="Teef"><path class="cls-10" d="M470.25,383.55c-2.33-.74-5.39-1.68-4.73.68,1.65,5.92,5.43,18.29,8.77,23.19a47.48,47.48,0,0,0,11,10.86,3.07,3.07,0,0,0,4.42-.89c2.29-3.76,6.43-10.47,9.14-14.36,3.85-5.53,2.67-9.49,2.71-9.55h0Z" transform="translate(-306.31 -47.59)"/><path class="cls-11" d="M501.52,393s9.09,16.63,13.35,18.78c0,0,2.9.18,9.48-5.37l6.59-5.54a24.19,24.19,0,0,0,10.45,10.73c.67.11,2.7,0,8.38-7.87l1.42-3a26.53,26.53,0,0,0,10.07,9.9c.15.08,3.62-1.54,6.77-5.49,4.71-5.9,6.13-15.27,6.13-15.27s-18.39,1.65-21.68-2.32a51.71,51.71,0,0,0-7.42-7.1,16.15,16.15,0,0,1-11.8,11.42C523.39,394.41,501.52,393,501.52,393Z" transform="translate(-306.31 -47.59)"/><path class="cls-12" d="M508.35,456.1c-.25-5-2.06-17.68-10.58-32.73-4.08-7.22-14.45,4.53-14.45,4.53" transform="translate(-306.31 -47.59)"/><path class="cls-13" d="M598.16,381.39c3-1.14,7.7-3.39,7-.26a106.71,106.71,0,0,1-8.25,21.56c-2.74,4.81-7.64,8.66-10.84,10.83a3.1,3.1,0,0,1-4.56-1.31c-1.62-3.65-4.23-9.59-5.77-13.53-2.32-5.94-1.56-9.86-1.59-9.92h0Z" transform="translate(-306.31 -47.59)"/><path class="cls-14" d="M594,426.68s-11.45-12.27-11.59-5.34c-.22,11,.67,21,1.4,24.18" transform="translate(-306.31 -47.59)"/></g><g id="Mouth"><path class="cls-15" d="M544.48,384.75c-9,14.85-29,11.25-37.48,10.35s-55.42-9.9-64.5-30.37,2.27-27.21,2.27-27.21c-17.08,36.89,55.2,57.58,80.36,54s16.59-31.08,16.59-31.08l7.41-5.53s-4.55,9.58-2.84,23.08C546.29,378,545.18,383.67,544.48,384.75Z" transform="translate(-306.31 -47.59)"/><path class="cls-15" d="M545.15,381.67c6.61,13.09,21.44,9.92,27.68,9.13s40.93-8.73,47.63-26.78-1.67-24-1.67-24c12.61,32.52-40.77,50.77-59.35,47.63s-12.25-27.4-12.25-27.4l-5.47-4.88a46.75,46.75,0,0,1,2.09,20.35S544.63,380.72,545.15,381.67Z" transform="translate(-306.31 -47.59)"/></g><g id="Eyes_and_Nose" data-name="Eyes and Nose"><path class="cls-16" d="M486.23,246.64S471.71,205,431.9,222.84c0,0-28.19,7.39-28.58,18.61s6.17,38,7.91,41.75c4.55,9.95,76.2,30.43,75-36.56" transform="translate(-306.31 -47.59)"/><path class="cls-16" d="M568,246.64s14.52-41.63,54.33-23.8c0,0,28.19,7.39,28.58,18.61s-6.17,38-7.91,41.75c-4.55,9.95-76.2,30.43-75-36.56" transform="translate(-306.31 -47.59)"/><path class="cls-17" d="M437.65,266.25s1.48-7.91,7.12-3.74,16.88-2.75,16.88-6.26,7-15.23,10.06-9.37,6.59,28-7,35.69-22.66,5.55-25.56,0S437.65,266.25,437.65,266.25Z" transform="translate(-306.31 -47.59)"/><path class="cls-17" d="M591.2,266.25s1.49-7.91,7.13-3.74,16.87-2.75,16.87-6.26,7-15.23,10.07-9.37,6.59,28-7,35.69-22.66,5.55-25.56,0S591.2,266.25,591.2,266.25Z" transform="translate(-306.31 -47.59)"/><path d="M415,287s-21-11-17-52c0,0,17-28,46-26s38,19,38,19,6,10,5,20c0,0-18-55-79-13C408,235,400,256,415,287Z" transform="translate(-306.31 -47.59)"/><path d="M639.12,287.23s21-11,17-52c0,0-17-28-46-26s-38,19-38,19-6,10-5,20c0,0,18-55,79-13C646.12,235.23,654.12,256.23,639.12,287.23Z" transform="translate(-306.31 -47.59)"/><path class="cls-18" d="M468.5,220.5S493,272,457,287c-11.93.31-19.57.19-25.5-24.5,0,0,17,2,16-10s-19-10-19-10-3-2,0-24" transform="translate(-306.31 -47.59)"/><path class="cls-18" d="M621.77,220.2s24.5,51.5-11.5,66.5c-11.93.3-19.58.19-25.5-24.5,0,0,17,2,16-10s-19-10-19-10-3.27,2.3-.27-19.7" transform="translate(-306.31 -47.59)"/><path d="M468,279c2-3,7.5-16.5.5-31.5,0,0,1.5,25.5-12.5,26.5-14.51-.1-14.68-13.72-15-13,0,0,13.82-2.76,3.91-14.38,0,0,0-2.24-15.91-4.62,0,0-4-21,2-25s36-4,38,1,7,23.27,7.64,36.68C477.27,268.48,466.2,281.7,468,279Z" transform="translate(-306.31 -47.59)"/><path d="M440,262s-2,18,4,22,10,3,10,3-14.85.11-18.93-12.94S431,262,431,262,437,263,440,262Z" transform="translate(-306.31 -47.59)"/><path d="M620.48,279.15c2-3,7.5-16.5.5-31.5,0,0,1.5,25.5-12.5,26.5-14.51-.11-14.68-13.73-15-13,0,0,13.82-2.76,3.91-14.38,0,0,0-2.25-15.91-4.62,0,0-4-21,2-25s36-4,38,1,7,23.26,7.64,36.67C629.75,268.63,618.68,281.84,620.48,279.15Z" transform="translate(-306.31 -47.59)"/><path d="M592.48,262.15s-2,18,4,22,10,3,10,3-14.85.11-18.93-12.95-4.07-12.05-4.07-12.05S589.48,263.15,592.48,262.15Z" transform="translate(-306.31 -47.59)"/><path d="M518.79,351.69c-4-2.35-13.83-10.49-11.42-32.19,0,0,2-8,19-9s34-1,37,0,14,1,13,10,2,22-11,32c0,0-8,0-7-3s11-13,6-21-11,9-12,19-2,10-2,10-5,4-7,4-9-4-9-5-1.77-7.58-2.08-9-2.84-32.73-10.92-19.43c-2.56,4.22.93,11.49,6.6,20.12,1,1.59-3.87,4.27-5.55,4.64C521.28,353.12,519.79,352.29,518.79,351.69Z" transform="translate(-306.31 -47.59)"/><path class="cls-19" d="M522.5,352.5" transform="translate(-306.31 -47.59)"/></g></svg>