<?xml version="1.0" encoding="utf-8"?>
<!-- Generator: Adobe Illustrator 24.2.0, SVG Export Plug-In . SVG Version: 6.00 Build 0)  -->
<svg version="1.1" xmlns="http://www.w3.org/2000/svg" xmlns:xlink="http://www.w3.org/1999/xlink" x="0px" y="0px"
	 viewBox="0 0 1024 768" style="enable-background:new 0 0 1024 768;" xml:space="preserve">
<style type="text/css">
	.st0{display:none;}
	.st1{fill:#EFD6B8;}
	.st2{opacity:0.58;fill:#7A6C53;}
	.st3{fill:#7A6C53;}
	.st4{display:inline;fill:#69489D;}
	.st5{display:inline;fill:#AB121C;}
	.st6{display:inline;fill:#00582A;}
	.st7{display:inline;fill:#EFD6B8;}
	.st8{display:inline;fill:#BDAED0;}
	.st9{display:inline;fill:#7D002E;}
	.st10{display:inline;fill:#71644C;}
	.st11{display:inline;fill:#4C2683;}
	.st12{fill:#69489D;}
	.st13{fill:url(#SVGID_1_);}
	.st14{fill:#BDAED0;}
	.st15{fill:#4C2683;}
	.st16{fill:#4F3231;}
	.st17{fill:url(#SVGID_2_);}
	.st18{fill:#7A0026;}
	.st19{fill:url(#SVGID_3_);stroke:#1A1A1A;stroke-miterlimit:10;}
	.st20{fill:url(#SVGID_4_);stroke:#1A1A1A;stroke-miterlimit:10;}
	.st21{fill:url(#SVGID_5_);stroke:#1A1A1A;stroke-miterlimit:10;}
	.st22{fill:url(#SVGID_6_);stroke:#1A1A1A;stroke-miterlimit:10;}
	.st23{fill:url(#SVGID_7_);stroke:#1A1A1A;stroke-miterlimit:10;}
	.st24{fill:#FFFFFF;}
	.st25{fill:#00582A;}
	.st26{fill:none;stroke:#000000;stroke-width:3;stroke-miterlimit:10;}
	.st27{fill:none;stroke:#000000;stroke-width:0.75;stroke-miterlimit:10;}
</style>
<g id="Layer_12" class="st0">
</g>
<g id="Layer_13">
	<path class="st1" d="M385.52,322.55c0,0-24.52,60.9-9.03,97.03c15.48,36.13,25.55,34.06,25.55,34.06s-12.39,22.71-10.32,50.06
		c2.06,27.35,7.23,54.19,7.23,54.19l52.65,0.52h37.16c0,0,31.55-49.42-9.29-44.39l14.97-91.87c0,0,24.83-61.95,22.19-73.81
		c-2.09-9.37-6.27-33.33-7.74-40.77L385.52,322.55z"/>
</g>
<g id="Layer_14">
	<path class="st2" d="M494.55,389.39c3.23,2.92-24.71,49.7-43.5,49.89C465.59,427.08,480.34,408.85,494.55,389.39z"/>
	<path class="st2" d="M458.35,437l-6.39,79.74c1.61,3.19,1.61,4.33,3.48,7.16c0,0,0.32-74.52,9.1-90.77
		C462.78,434.12,460.32,436.8,458.35,437z"/>
	<path class="st2" d="M454.34,522.14c-8.16-25.16-49.77,4.38-48.82,9.7c27.68-24.54,46.35-14.74,49.23-8.71L454.34,522.14z"/>
	<path class="st2" d="M428.42,517.65c6.58,10.9,3.36,26.45,2.77,39.52c0,0,4.81-22.91,3.61-29.03c-1.42-7.26-3.16-8.81-3.16-8.81
		L428.42,517.65z"/>
	<path class="st2" d="M455.4,523.81c0.45-0.56,7.79,13.03-0.4,34.42l-2.47,0.05c5.37-1.45,4.26-35.27,1.63-36.24L455.4,523.81z"/>
	<path class="st3" d="M412.29,527.97"/>
	<path class="st2" d="M444.65,516.35c8.77,11.87,2.21,28.3,1,41.42c0,0,7.51-24.08,6.45-30.23c-1.55-8.97-4.32-9.47-4.65-9.81
		L444.65,516.35z"/>
	<path class="st2" d="M468.94,520c8.9,13,0.87,25.2,1.22,38.29c0,0,6.77-23.85,5.94-30.03c-1.16-8.65-3.75-10.61-3.75-10.61
		L468.94,520z"/>
	<path class="st2" d="M484.2,514.84c14.29,13,2.72,29.94,1.51,43.06c0,0,8.48-27.21,7.65-33.39c-1.16-8.65-4.23-9.06-4.23-9.06
		L484.2,514.84z"/>
	<path class="st2" d="M500.35,524.87c-4.9-23.61-40.52-5.29-40.77,1.94C489.39,501,500.35,524.87,500.35,524.87z"/>
</g>
<g id="Layer_1" class="st0">
	<rect x="42.08" y="216.47" class="st4" width="80.87" height="73.04"/>
	<rect x="175.74" y="30.33" class="st5" width="84.35" height="73.91"/>
	<rect x="21.39" y="206.85" class="st6" width="77.39" height="55.65"/>
	<rect x="73.92" y="195.19" class="st7" width="70.43" height="96.52"/>
	<rect x="84.61" y="83.97" class="st8" width="60.4" height="44.9"/>
	<ellipse class="st9" cx="61.77" cy="137.77" rx="37.55" ry="35.23"/>
	<ellipse class="st9" cx="149.26" cy="206.68" rx="37.55" ry="35.23"/>
	<polygon class="st10" points="102.35,307.37 74.62,191.24 74.62,113.73 102.35,229.86 	"/>
	<rect x="290.35" y="380.1" class="st11" width="40.65" height="33.68"/>
</g>
<g id="Layer_17">
	<g>
		<path class="st1" d="M294.03,552.48c0,0,89-66.43,95-13.48c0.61,5.4-2.91,10.42-8.2,11.66
			C364.39,554.49,326.78,561.26,294.03,552.48z"/>
		<path class="st2" d="M376.68,520.35c0.43-0.91,12.85,4.12-0.77,31.1l2.58-0.26c0,0,8.84-20.26,0.97-28.39L376.68,520.35z"/>
		<path class="st2" d="M359.77,520.1c0,0,10.19,2.32-0.39,35.1l2.97-0.39c0,0,9.94-30.06,1.94-35.48L359.77,520.1z"/>
	</g>
	<path class="st2" d="M302.29,546.82c22.41-15.06,82.65-51.14,86.78-6.74c0.46,4.95-2.9,9.27-7.69,10.6
		c-13.57,3.76-46.43,9.64-77.4,4.16C300.06,554.15,298.99,549.04,302.29,546.82z"/>
</g>
<g id="Tan_Fur">
	<path class="st1" d="M435.23,108.28c0,0-29.12,89.1-50.13,85.69s-57.62-24.47-63.56-5.97s10.55,55.82,19.79,69.48
		c9.24,13.67,5.94,44.01,2.64,45.99c-3.3,1.98-10.17,10.53-10.17,10.53s65.35,67.08,176.62,0.67c0,0-8.71-22.84,5.69-57.2
		c14.83-35.38,21.15-60.66,17.93-66.23c-3.23-5.57-26.01-11.5-40.13-5.9c-14.11,5.6-29.65,18.16-45.19-42.8
		C448.72,142.56,441.57,116.19,435.23,108.28z"/>
</g>
<g id="Chin">
	<path class="st2" d="M411.26,281.56c0,0,5.93,10.12,13.46,10.34c7.53,0.22,31.24-0.11,33.56-1.21c2.31-1.1,9.45-7.15,10.15-8.69
		c0,0-5.29,17.26-10.12,18.47c-4.82,1.21-29.88,2.31-35.4-1.32C417.39,295.52,411.46,286.94,411.26,281.56z"/>
</g>
<g id="Layer_15">
	<path class="st12" d="M285.13,559.71l69.48-2.32c1.4-0.12,5.33-2.89,5.61-4.26c1.01-4.84,2.75-10.29-8.52-17.42
		c-1.89-1.2,1.56-3.15,3.34-4.5c6.2-4.68,24.74-30.21,25.3-26.85L392.94,557c0.17,0.99,5.23,0.97,7.16,0.58
		c-4.8-15.06-4.81-38.35,6.09-54.84c0.69-1.05,0.71-2.43-0.01-3.46c-17.07-24.49,4.94-149.66,3.08-150.41
		c-32.77-13.16-27.87-8-43.87-27.1"/>
	<path class="st12" d="M289.77,556.61l-35.1,16.52l0,0c0,0,0,0-12.39,2.32c-12.39,2.32-39.48-2.32-62.71-27.1
		c-23.23-24.77,20.9-92.13,25.55-100.65c4.65-8.52,57.37-39.72,66.58-61.94c11.35-27.37,65.14-85.54,66.32-84.13
		c4.94,5.91,16.2,21.41,27.1,26.58"/>
	<g>
		<path class="st12" d="M386.03,343.19c0,0-49.81-41.29-24.47-65.57c0,0-4.4-10.12-15.39-25.07c-10.99-14.95-31.8-47.48-7.26-60.16
			c24.54-12.68,30.44,8.7,50.11,5.62c6.64-1.04,21.48-14.22,24-18.88c2.88-5.31,11.06-28.22,6.6-33.5c-3.69-4.37,7.04,5.91,6.6,8.04
			s-0.81-16.93,2.88-24.85c3.69-7.92,5.18-13.19,5.18-13.19l-1.89-32.4c0,0-16.49-3.52-43.21,2.2l-44.32-36.94
			c0,0-10.12-4.84-13.19,7.92c-3.08,12.75-13.19,65.97-10.55,75.64s4.4,16.27,4.4,16.27s-28.15,40.02-16.27,66.41
			c11.87,26.39,36.56,46.28,34.36,58.15c-2.2,11.87-2.61,30.28-13.17,39.08L386.03,343.19z"/>
		<path class="st12" d="M535.91,216.25c11.87-26.39-16.27-66.41-16.27-66.41s1.76-6.6,4.4-16.27s-7.48-62.89-10.55-75.64
			s-13.19-7.92-13.19-7.92l-44.32,36.94c-26.73-5.72-43.21-2.2-43.21-2.2s45.35,3.52,59.64,30.13c14.29,26.61,41.78,36.5,45.3,50.58
			S538.07,207.67,535.91,216.25"/>
		<linearGradient id="SVGID_1_" gradientUnits="userSpaceOnUse" x1="483.2871" y1="197.3735" x2="481.8686" y2="306.7367">
			<stop  offset="0" style="stop-color:#69489D"/>
			<stop  offset="1" style="stop-color:#000000;stop-opacity:0"/>
		</linearGradient>
		<path class="st13" d="M519.64,150.25c0,0,28.15,40.02,16.27,66.41c-11.87,26.39-13.8,25.04-19.3,39.96
			c0,0,15.58-37.73,10.09-50.04s-13.95-25.21-43.84-11.86c-28.96,12.93-40.39-46.86-40.48-47.3c-0.21-1.16-0.64-8.41,0-9.36
			c0,0-3.19,5.84-4.29,8.48c0,0-3.77-16.71-3.81-23.09c-0.05-6.38-5.16-36.94-5.16-36.94s13.23-0.66,25.28,6.6
			c12.05,7.26,40.42,34.52,44.6,42.88C503.18,144.34,519.64,150.25,519.64,150.25z"/>
	</g>
	<path class="st12" d="M535.91,216.25"/>
	<path class="st14" d="M335.6,129.17c0,0-3.18-29.88,2.54-53.19c0,0,4.84-10.99,4.84-14.51c0,0,30.22,27.27,31.98,32.54
		C374.96,94.01,348.8,124.33,335.6,129.17z"/>
	<path class="st14" d="M510.93,132.68c0,0,5-34.29-0.54-60.05c0,0-3.13-11.6-2.6-15.08c0,0-34.97,29.72-37.51,34.67
		C470.29,92.23,498.62,125.91,510.93,132.68z"/>
</g>
<g id="Layer_16">
	<path class="st15" d="M280.74,449.52c0,0,116-56.26,93.29,38.71c0,0-4.13,27.74-20,40.52l6.84,10.06c3.87-3.74,8.4-8.14,16.39-27.1
		c9.59-22.76,20.46-59.42-2.84-74.58C331.58,409.26,286.94,447.97,280.74,449.52z"/>
	<path class="st15" d="M195.19,499.65c0,0,6.19,34.84,35.23,39.1s65.55-20.13,65.55-20.13s-11.42,24.73-48.9,25.94
		C211.06,545.71,190.16,543.39,195.19,499.65z"/>
	<path class="st15" d="M295.58,518.68c0,0-0.26,34.84-17.81,44.13c-17.55,9.29-18.97,9.29-18.97,9.29l-13.94,1.48l-9.81,0.77
		C235.06,574.35,285.77,567.71,295.58,518.68z"/>
</g>
<g id="foot">
	<g>
		<path class="st1" d="M282.42,558.94c0,0,75.59-63.8,80.73-11.57c0.58,5.89-3.42,11.25-9.19,12.57
			C340.16,563.07,312.71,567.05,282.42,558.94z"/>
		<path class="st2" d="M350.16,527.45c0,0,14.06,10.32,2.58,32.77l2.58-1.03c0,0,8.77-19.35,0.9-27.48L350.16,527.45z"/>
		<path class="st2" d="M334.42,527.65c0,0,10.19,2.32-0.39,35.1l2.97-0.39c0,0,9.94-30.06,1.94-35.48L334.42,527.65z"/>
	</g>
</g>
<g id="Mouth_space_x3F__x3F_">
	<path class="st16" d="M386.49,230.95c0,0,2.86,7.44,8.58,14.54c5.72,7.1,16.75,28.65,23.16,33.97c1.46,1.21,37.75,8.53,45.23-4.2
		c7.48-12.74,12.26-23.82,12.26-23.82s6.29-12.93,7-16.29c1.12-3.78,1.26-6.76,1.26-6.76s-6.87,10.9-20.26,13.17
		c-13.38,2.27-20.78-1.88-21.51-4.89c0,0-1.36,6.8-8.6,7.38s-35.96-4.68-39.7-7.93c-4.39-3.82-7.42-7.73-7.42-7.73V230.95z"/>
</g>
<g id="Tongue">
	<linearGradient id="SVGID_2_" gradientUnits="userSpaceOnUse" x1="430.4835" y1="242.0974" x2="442.5128" y2="301.825">
		<stop  offset="0" style="stop-color:#7D002E"/>
		<stop  offset="0.9832" style="stop-color:#AB121C"/>
	</linearGradient>
	<path class="st17" d="M432.07,243.69c0,0,21.85,1.91,25.08,8.18c3.22,6.27,8.55,16.69,5.55,38.68c0,0-0.03,15.85-18.46,17.61
		c-18.42,1.76-22.08-11.02-22.54-22.01c-0.46-10.99,1.46-10.28-6.91-22.43c-8.37-12.15-11.59-18.03-10.52-18.91
		c1.08-0.88,6.48-2.15,11.82-0.73C421.43,245.51,432.07,243.69,432.07,243.69z"/>
	<path class="st18" d="M431.78,247.18c2.26,1.13,13.9,24.1,11.29,45.88c-0.38-0.01,3.59-35.04-2.64-42.66
		C435.2,244.01,431.78,247.18,431.78,247.18z"/>
	<path class="st18" d="M489.54,321.5"/>
</g>
<g id="Teef">
	<linearGradient id="SVGID_3_" gradientUnits="userSpaceOnUse" x1="405.3579" y1="251.2098" x2="407.5064" y2="239.011">
		<stop  offset="0" style="stop-color:#FFFFFF"/>
		<stop  offset="0.9533" style="stop-color:#4F3231"/>
	</linearGradient>
	<path class="st19" d="M399.44,238.44c-1.32-0.42-3.06-0.96-2.69,0.38c0.94,3.37,3.09,10.39,4.98,13.18
		c1.88,2.75,4.55,4.95,6.23,6.17c0.82,0.6,1.98,0.37,2.51-0.5c1.3-2.13,3.65-5.95,5.19-8.16c2.19-3.14,1.52-5.39,1.54-5.42
		c0,0,0,0,0,0L399.44,238.44z"/>
	<linearGradient id="SVGID_4_" gradientUnits="userSpaceOnUse" x1="438.5959" y1="252.6264" x2="438.5959" y2="238.9216">
		<stop  offset="0" style="stop-color:#FFFFFF"/>
		<stop  offset="1" style="stop-color:#4F3231"/>
	</linearGradient>
	<path class="st20" d="M418.81,244.35c-0.69,0,3.23,9.29,7.03,10.52c0,0,0.6-0.29,4.33-3.44s3.74-3.15,3.74-3.15s1.65,3.86,5.94,6.1
		c0.38,0.06,1.53-0.01,4.76-4.47l0.81-1.69c0,0,1.89,3.59,5.72,5.62c0.09,0.05,2.05-0.87,3.85-3.12c2.68-3.35,3.48-8.67,3.48-8.67
		s-10.45,0.93-12.31-1.32c-1.87-2.25-5.02-3.66-5.02-3.66s-0.29,4.7-5.9,6.12C429.62,244.61,418.81,244.35,418.81,244.35z"/>
	<linearGradient id="SVGID_5_" gradientUnits="userSpaceOnUse" x1="416.9869" y1="268.3566" x2="412.1116" y2="273.6708">
		<stop  offset="0" style="stop-color:#FFFFFF"/>
		<stop  offset="0.6083" style="stop-color:#4F3231"/>
	</linearGradient>
	<path class="st21" d="M421.08,279.65c-0.15-2.82-1.17-10.04-6.01-18.59c-2.32-4.1-8.21,2.58-8.21,2.58"/>
	
		<linearGradient id="SVGID_6_" gradientUnits="userSpaceOnUse" x1="783.623" y1="248.5182" x2="785.6053" y2="234.6082" gradientTransform="matrix(-1 0 0 1 1252.0974 0)">
		<stop  offset="0" style="stop-color:#FFFFFF"/>
		<stop  offset="0.9832" style="stop-color:#4F3231"/>
	</linearGradient>
	<path class="st22" d="M472.1,237.21c1.71-0.65,4.37-1.92,3.96-0.15c-0.79,3.37-3.12,9.5-4.69,12.25c-1.55,2.73-4.34,4.92-6.16,6.15
		c-0.91,0.61-2.15,0.26-2.59-0.75c-0.92-2.07-2.4-5.45-3.28-7.69c-1.32-3.37-0.88-5.6-0.9-5.63c0,0,0,0,0,0L472.1,237.21z"/>
	
		<linearGradient id="SVGID_7_" gradientUnits="userSpaceOnUse" x1="787.955" y1="265.0787" x2="782.6812" y2="270.8272" gradientTransform="matrix(-1 0 0 1 1251.868 0)">
		<stop  offset="0" style="stop-color:#FFFFFF"/>
		<stop  offset="0.6083" style="stop-color:#4F3231"/>
	</linearGradient>
	<path class="st23" d="M469.75,262.94c0,0-6.51-6.97-6.58-3.03c-0.12,6.27,0.38,11.92,0.79,13.74"/>
</g>
<g id="Mouth">
	<path class="st3" d="M441.61,239.12c-5.09,8.43-16.49,6.39-21.3,5.88c-4.8-0.51-31.48-5.62-36.64-17.26s1.29-15.46,1.29-15.46
		c-9.7,20.96,31.35,32.71,45.65,30.69c14.29-2.02,9.42-17.65,9.42-17.65l4.21-3.14c0,0-2.58,5.44-1.61,13.11
		C442.63,235.29,442,238.51,441.61,239.12z"/>
	<path class="st3" d="M441.98,237.37c3.76,7.43,12.18,5.63,15.73,5.18c3.55-0.45,23.25-4.96,27.06-15.21
		c3.81-10.25-0.95-13.63-0.95-13.63c7.17,18.47-23.16,28.84-33.71,27.05c-10.56-1.78-6.96-15.56-6.96-15.56l-3.11-2.77
		c0,0,1.91,4.8,1.19,11.56C441.23,233.99,441.69,236.83,441.98,237.37z"/>
</g>
<g id="Eyes_and_Nose">
	<path class="st24" d="M408.51,160.66c0,0-8.25-23.65-30.86-13.52c0,0-16.02,4.19-16.24,10.57c-0.22,6.38,3.5,21.56,4.49,23.72
		C368.5,187.09,409.2,198.72,408.51,160.66"/>
	<path class="st24" d="M454.99,160.66c0,0,8.25-23.65,30.86-13.52c0,0,16.02,4.19,16.24,10.57c0.22,6.38-3.5,21.56-4.49,23.72
		C495.01,187.09,454.31,198.72,454.99,160.66"/>
	<path class="st25" d="M380.92,171.8c0,0,0.84-4.49,4.05-2.12s9.58-1.56,9.58-3.55s3.96-8.66,5.72-5.32
		c1.76,3.33,3.74,15.89-3.95,20.28c-7.7,4.38-12.87,3.15-14.52,0C380.15,177.93,380.92,171.8,380.92,171.8z"/>
	<path class="st25" d="M468.15,171.8c0,0,0.84-4.49,4.05-2.12s9.58-1.56,9.58-3.55s3.96-8.66,5.72-5.32
		c1.76,3.33,3.74,15.89-3.95,20.28c-7.7,4.38-12.87,3.15-14.52,0C467.38,177.93,468.15,171.8,468.15,171.8z"/>
	<path d="M368.05,183.59c0,0-11.93-6.25-9.66-29.54c0,0,9.66-15.91,26.13-14.77c16.47,1.14,21.59,10.79,21.59,10.79
		s3.41,5.68,2.84,11.36c0,0-10.23-31.24-44.88-7.38C364.08,154.05,359.53,165.98,368.05,183.59z"/>
	<path d="M495.37,183.72c0,0,11.93-6.25,9.66-29.54c0,0-9.66-15.91-26.13-14.77c-16.47,1.14-21.59,10.79-21.59,10.79
		s-3.41,5.68-2.84,11.36c0,0,10.23-31.24,44.88-7.38C499.34,154.18,503.89,166.11,495.37,183.72z"/>
	<g>
		<path class="st26" d="M398.44,145.82c0,0,13.92,29.26-6.53,37.78c-6.78,0.17-11.12,0.11-14.49-13.92c0,0,9.66,1.14,9.09-5.68
			c-0.57-6.82-10.79-5.68-10.79-5.68s-1.7-1.14,0-13.63"/>
	</g>
	<g>
		<path class="st26" d="M485.51,145.64c0,0,13.92,29.26-6.53,37.78c-6.78,0.17-11.12,0.11-14.49-13.92c0,0,9.66,1.14,9.09-5.68
			c-0.57-6.82-10.79-5.68-10.79-5.68s-1.86,1.31-0.15-11.19"/>
	</g>
	<g>
		<path d="M398.16,179.05c1.14-1.7,4.26-9.37,0.28-17.89c0,0,0.85,14.49-7.1,15.05c-8.24-0.06-8.34-7.79-8.52-7.38
			c0,0,7.85-1.57,2.22-8.17c0,0,0.02-1.27-9.04-2.62c0,0-2.27-11.93,1.14-14.2s20.45-2.27,21.59,0.57c1.14,2.84,4,13.22,4.34,20.84
			C403.42,173.07,397.14,180.58,398.16,179.05z"/>
		<path d="M382.25,169.39c0,0-1.14,10.23,2.27,12.5c3.41,2.27,5.68,1.7,5.68,1.7s-8.44,0.06-10.75-7.35s-2.31-6.85-2.31-6.85
			S380.55,169.96,382.25,169.39z"/>
	</g>
	<g>
		<path d="M484.78,179.13c1.14-1.7,4.26-9.37,0.28-17.89c0,0,0.85,14.49-7.1,15.05c-8.24-0.06-8.34-7.79-8.52-7.38
			c0,0,7.85-1.57,2.22-8.17c0,0,0.02-1.27-9.04-2.62c0,0-2.27-11.93,1.14-14.2s20.45-2.27,21.59,0.57c1.14,2.84,4,13.22,4.34,20.84
			C490.04,173.16,483.75,180.66,484.78,179.13z"/>
		<path d="M468.87,169.47c0,0-1.14,10.23,2.27,12.5c3.41,2.27,5.68,1.7,5.68,1.7s-8.44,0.06-10.75-7.35s-2.31-6.85-2.31-6.85
			S467.17,170.04,468.87,169.47z"/>
	</g>
	<path d="M427.01,220.34c-2.25-1.34-7.86-5.96-6.49-18.29c0,0,1.14-4.54,10.79-5.11s19.31-0.57,21.02,0s7.95,0.57,7.38,5.68
		c-0.57,5.11,1.14,12.5-6.25,18.18c0,0-4.54,0-3.98-1.7c0.57-1.7,6.25-7.38,3.41-11.93c-2.84-4.54-6.25,5.11-6.82,10.79
		c-0.57,5.68-1.14,5.68-1.14,5.68s-2.84,2.27-3.98,2.27c-1.14,0-5.11-2.27-5.11-2.84c0-0.57-1-4.31-1.18-5.09
		c-0.2-0.85-1.61-18.59-6.2-11.04c-1.46,2.4,0.53,6.53,3.75,11.43c0.6,0.91-2.2,2.43-3.15,2.64
		C428.43,221.15,427.58,220.68,427.01,220.34z"/>
	<path class="st27" d="M429.12,220.8"/>
</g>
<g id="Layer_11">
</g>
</svg>
